<svg xmlns="http://www.w3.org/2000/svg" viewBox="0 0 24 24" fill="none">
  <rect width="24" height="24" rx="6" fill="#24292E"/>
  <path d="M12 3a9 9 0 00-2.845 17.54c.45.083.615-.195.615-.433 0-.214-.008-.78-.012-1.53-2.504.544-3.032-1.207-3.032-1.207-.41-1.04-1-1.317-1-1.317-.816-.558.062-.547.062-.547.902.064 1.377.927 1.377.927.8 1.37 2.098.975 2.61.745.081-.58.313-.975.57-1.198-1.99-.226-4.083-.995-4.083-4.43 0-.98.35-1.78.924-2.408-.093-.226-.4-1.14.088-2.374 0 0 .754-.242 2.47.921A8.594 8.594 0 0112 7.02a8.59 8.59 0 012.25.303c1.715-1.163 2.468-.921 2.468-.921.49 1.235.182 2.148.09 2.374.575.627.922 1.428.922 2.408 0 3.444-2.095 4.202-4.09 4.424.322.277.608.824.608 1.66 0 1.2-.011 2.167-.011 2.46 0 .24.162.52.619.432A9 9 0 0012 3z" fill="white"/>
</svg>
