<svg xmlns="http://www.w3.org/2000/svg" viewBox="0 0 24 24">
  <defs>
    <radialGradient id="ig" cx="30%" cy="107%" r="150%">
      <stop offset="0%" stop-color="#fdf497"/>
      <stop offset="10%" stop-color="#fdf497"/>
      <stop offset="50%" stop-color="#fd5949"/>
      <stop offset="68%" stop-color="#d6249f"/>
      <stop offset="100%" stop-color="#285AEB"/>
    </radialGradient>
  </defs>
  <rect width="24" height="24" rx="6" fill="url(#ig)"/>
  <path fill="white" d="M12 7.5a4.5 4.5 0 100 9 4.5 4.5 0 000-9zm0 7.4a2.9 2.9 0 110-5.8 2.9 2.9 0 010 5.8zm4.65-7.575a1.05 1.05 0 100 2.1 1.05 1.05 0 000-2.1zM12 3c-2.444 0-2.75.01-3.71.054-.958.044-1.613.196-2.185.418A4.412 4.412 0 004.51 4.51a4.412 4.412 0 00-1.038 1.595C3.25 6.677 3.098 7.332 3.054 8.29 3.01 9.25 3 9.556 3 12c0 2.444.01 2.75.054 3.71.044.958.196 1.613.418 2.185a4.412 4.412 0 001.038 1.595 4.412 4.412 0 001.595 1.038c.572.222 1.227.374 2.185.418C9.25 20.99 9.556 21 12 21c2.444 0 2.75-.01 3.71-.054.958-.044 1.613-.196 2.185-.418a4.412 4.412 0 001.595-1.038 4.412 4.412 0 001.038-1.595c.222-.572.374-1.227.418-2.185C20.99 14.75 21 14.444 21 12c0-2.444-.01-2.75-.054-3.71-.044-.958-.196-1.613-.418-2.185a4.412 4.412 0 00-1.038-1.595 4.412 4.412 0 00-1.595-1.038c-.572-.222-1.227-.374-2.185-.418C14.75 3.01 14.444 3 12 3zm0 1.622c2.403 0 2.688.009 3.637.052.877.04 1.354.187 1.67.31.42.163.72.358 1.035.673.315.315.51.615.673 1.035.123.316.27.793.31 1.67.043.95.052 1.234.052 3.638 0 2.403-.009 2.688-.052 3.637-.04.877-.187 1.354-.31 1.67a2.788 2.788 0 01-.673 1.035 2.788 2.788 0 01-1.035.673c-.316.123-.793.27-1.67.31-.95.043-1.233.052-3.637.052-2.403 0-2.688-.009-3.638-.052-.877-.04-1.354-.187-1.67-.31a2.788 2.788 0 01-1.035-.673 2.788 2.788 0 01-.673-1.035c-.123-.316-.27-.793-.31-1.67C4.631 14.688 4.622 14.403 4.622 12c0-2.403.009-2.688.052-3.638.04-.877.187-1.354.31-1.67a2.788 2.788 0 01.673-1.035 2.788 2.788 0 011.035-.673c.316-.123.793-.27 1.67-.31.95-.043 1.235-.052 3.638-.052z"/>
</svg>
