<svg xmlns="http://www.w3.org/2000/svg" viewBox="0 0 24 24">
  <rect width="24" height="24" rx="5" fill="#25D366"/>
  <!-- outer white circle = bubble body -->
  <circle cx="12" cy="11.5" r="7.5" fill="white"/>
  <!-- white tail at bottom-left -->
  <path fill="white" d="M6.7 16.8 L3.5 21.5 L8.5 18.5 Z"/>
  <!-- inner green circle = hollow interior (same color as background) -->
  <circle cx="12" cy="11.5" r="5.5" fill="#25D366"/>
  <!-- white phone handset inside the bubble -->
  <path fill="white" d="M15.36 13.58c-.2-.1-1.14-.56-1.32-.63-.17-.06-.3-.09-.43.1-.13.18-.5.63-.62.76-.11.12-.22.14-.41.05a5.6 5.6 0 0 1-1.66-1.02 5.52 5.52 0 0 1-1.15-1.44c-.11-.19-.01-.3.09-.4.09-.08.19-.22.29-.34.1-.12.12-.2.18-.33.06-.13.03-.24-.01-.34-.04-.1-.44-1.07-.6-1.46-.16-.38-.32-.32-.44-.33-.12 0-.25-.01-.38-.01a.74.74 0 0 0-.53.25c-.18.19-.7.68-.7 1.67s.72 1.94.82 2.07c.1.14 1.42 2.17 3.44 3.04.48.21.86.33 1.15.43.48.15.92.13 1.27.08.39-.06 1.19-.49 1.36-.96.17-.47.17-.87.12-.96-.05-.08-.19-.14-.38-.23z"/>
</svg>
