<svg xmlns="http://www.w3.org/2000/svg" viewBox="0 0 24 24">
  <rect width="24" height="24" rx="6" fill="#25D366"/>
  <path fill="white" d="M17.472 14.382c-.297-.149-1.758-.867-2.03-.967-.273-.099-.471-.148-.67.15-.197.297-.767.966-.94 1.164-.173.199-.347.223-.644.075-.297-.15-1.255-.463-2.39-1.475-.883-.788-1.48-1.761-1.653-2.059-.173-.297-.018-.458.13-.606.134-.133.298-.347.446-.52.149-.174.198-.298.298-.497.099-.198.05-.371-.025-.52-.075-.149-.669-1.612-.916-2.207-.242-.579-.487-.5-.669-.51-.173-.008-.371-.01-.57-.01-.198 0-.52.074-.792.372-.272.297-1.04 1.016-1.04 2.479 0 1.462 1.065 2.875 1.213 3.074.149.198 2.096 3.2 5.077 4.487.709.306 1.262.489 1.694.625.712.227 1.36.195 1.871.118.571-.085 1.758-.719 2.006-1.413.248-.694.248-1.289.173-1.413-.074-.124-.272-.198-.57-.347m-5.421 4.403h-.004a7.87 7.87 0 01-4.031-1.108l-.289-.172-2.993.786.8-2.916-.188-.299a7.86 7.86 0 01-1.208-4.208c.001-4.36 3.548-7.906 7.91-7.906 2.112 0 4.097.824 5.59 2.319a7.862 7.862 0 012.315 5.596c-.002 4.36-3.55 7.907-7.907 7.907m6.73-14.638A9.815 9.815 0 0012.05 2C6.628 2 2.229 6.399 2.226 11.824c0 1.676.438 3.313 1.271 4.755L2.057 21l4.604-1.208a9.882 9.882 0 004.546 1.158h.004c5.42 0 9.821-4.399 9.824-9.824A9.821 9.821 0 0018.78 5.147Z"/>
</svg>
